<?xml version="1.0" encoding="UTF-8" standalone="no"?>
<!-- Created with Inkscape (http://www.inkscape.org/) -->

<svg
   xmlns:dc="http://purl.org/dc/elements/1.1/"
   xmlns:cc="http://creativecommons.org/ns#"
   xmlns:rdf="http://www.w3.org/1999/02/22-rdf-syntax-ns#"
   xmlns:svg="http://www.w3.org/2000/svg"
   xmlns="http://www.w3.org/2000/svg"
   version="1.1"
   width="348.53"
   height="207.53488"
   id="svg2"
   style="enable-background:new">
  <defs
     id="defs4">
    <filter
       color-interpolation-filters="sRGB"
       id="filter4295">
      <feBlend
         in2="BackgroundImage"
         mode="lighten"
         id="feBlend4297" />
    </filter>
  </defs>
  <metadata
     id="metadata7">
    <rdf:RDF>
      <cc:Work
         rdf:about="">
        <dc:format>image/svg+xml</dc:format>
        <dc:type
           rdf:resource="http://purl.org/dc/dcmitype/StillImage" />
        <dc:title></dc:title>
      </cc:Work>
    </rdf:RDF>
  </metadata>
  <g
     transform="translate(-70.924747,-1.5175018)"
     id="layer1"
     style="display:inline;filter:url(#filter4295)">
    <g
       transform="matrix(0.29904162,0,0,0.29904162,483.09755,115.63926)"
       id="g4386">
      <g
         transform="translate(29.999999,-35.999999)"
         id="g3981">
        <path
           d="m -861.49998,-113.28754 93,-169.5 96.5,170 191.99999,38.999996 -132.99999,141.999996 24,194.999998 -179,-84 -176.99999,83 L -921.49998,68.212452 -1055.5,-74.787544 z"
           id="path3028"
           style="fill:none;stroke:#1abc9c;stroke-width:15;stroke-linecap:butt;stroke-linejoin:round;stroke-miterlimit:4;stroke-opacity:1;stroke-dasharray:none" />
        <path
           d="m -748.82604,-273.74149 a 18.384775,18.384775 0 1 1 -36.76955,0 18.384775,18.384775 0 1 1 36.76955,0 z"
           id="path3798"
           style="fill:#1abc9c;fill-opacity:1;stroke:#1abc9c;stroke-width:15;stroke-linecap:round;stroke-linejoin:round;stroke-miterlimit:4;stroke-opacity:1;stroke-dasharray:none;stroke-dashoffset:0" />
        <path
           d="m -748.82604,-273.74149 a 18.384775,18.384775 0 1 1 -36.76955,0 18.384775,18.384775 0 1 1 36.76955,0 z"
           transform="matrix(0.54243226,0,0,0.54243226,-66.613066,74.345111)"
           id="path3798-2"
           style="fill:#1abc9c;fill-opacity:1;stroke:#1abc9c;stroke-width:15;stroke-linecap:round;stroke-linejoin:round;stroke-miterlimit:4;stroke-opacity:1;stroke-dasharray:none;stroke-dashoffset:0;display:inline" />
        <path
           d="m -748.82604,-273.74149 a 18.384775,18.384775 0 1 1 -36.76955,0 18.384775,18.384775 0 1 1 36.76955,0 z"
           transform="matrix(0.54243226,0,0,0.54243226,-257.00574,35.257973)"
           id="path3798-2-1"
           style="fill:#1abc9c;fill-opacity:1;stroke:#1abc9c;stroke-width:15;stroke-linecap:round;stroke-linejoin:round;stroke-miterlimit:4;stroke-opacity:1;stroke-dasharray:none;stroke-dashoffset:0;display:inline" />
        <path
           d="m -748.82604,-273.74149 a 18.384775,18.384775 0 1 1 -36.76955,0 18.384775,18.384775 0 1 1 36.76955,0 z"
           transform="matrix(0.54243226,0,0,0.54243226,-446.51035,35.257978)"
           id="path3798-2-1-6"
           style="fill:#1abc9c;fill-opacity:1;stroke:#1abc9c;stroke-width:15;stroke-linecap:round;stroke-linejoin:round;stroke-miterlimit:4;stroke-opacity:1;stroke-dasharray:none;stroke-dashoffset:0;display:inline" />
        <path
           d="m -748.82604,-273.74149 a 18.384775,18.384775 0 1 1 -36.76955,0 18.384775,18.384775 0 1 1 36.76955,0 z"
           transform="matrix(0.54243226,0,0,0.54243226,-637.42918,74.148849)"
           id="path3798-2-1-6-7"
           style="fill:#1abc9c;fill-opacity:1;stroke:#1abc9c;stroke-width:15;stroke-linecap:round;stroke-linejoin:round;stroke-miterlimit:4;stroke-opacity:1;stroke-dasharray:none;stroke-dashoffset:0;display:inline" />
        <path
           d="m -748.82604,-273.74149 a 18.384775,18.384775 0 1 1 -36.76955,0 18.384775,18.384775 0 1 1 36.76955,0 z"
           transform="matrix(0.54243226,0,0,0.54243226,-505.90732,216.98442)"
           id="path3798-2-1-6-7-0"
           style="fill:#1abc9c;fill-opacity:1;stroke:#1abc9c;stroke-width:15;stroke-linecap:round;stroke-linejoin:round;stroke-miterlimit:4;stroke-opacity:1;stroke-dasharray:none;stroke-dashoffset:0;display:inline" />
        <path
           d="m -748.82604,-273.74149 a 18.384775,18.384775 0 1 1 -36.76955,0 18.384775,18.384775 0 1 1 36.76955,0 z"
           transform="matrix(0.54243226,0,0,0.54243226,-527.12053,408.61035)"
           id="path3798-2-1-6-7-0-1"
           style="fill:#1abc9c;fill-opacity:1;stroke:#1abc9c;stroke-width:15;stroke-linecap:round;stroke-linejoin:round;stroke-miterlimit:4;stroke-opacity:1;stroke-dasharray:none;stroke-dashoffset:0;display:inline" />
        <path
           d="m -748.82604,-273.74149 a 18.384775,18.384775 0 1 1 -36.76955,0 18.384775,18.384775 0 1 1 36.76955,0 z"
           transform="matrix(0.54243226,0,0,0.54243226,-351.75805,330.1215)"
           id="path3798-2-1-6-7-0-1-5"
           style="fill:#1abc9c;fill-opacity:1;stroke:#1abc9c;stroke-width:15;stroke-linecap:round;stroke-linejoin:round;stroke-miterlimit:4;stroke-opacity:1;stroke-dasharray:none;stroke-dashoffset:0;display:inline" />
        <path
           d="m -748.82604,-273.74149 a 18.384775,18.384775 0 1 1 -36.76955,0 18.384775,18.384775 0 1 1 36.76955,0 z"
           transform="matrix(0.54243226,0,0,0.54243226,-175.68846,409.31745)"
           id="path3798-2-1-6-7-0-1-5-0"
           style="fill:#1abc9c;fill-opacity:1;stroke:#1abc9c;stroke-width:15;stroke-linecap:round;stroke-linejoin:round;stroke-miterlimit:4;stroke-opacity:1;stroke-dasharray:none;stroke-dashoffset:0;display:inline" />
        <path
           d="m -748.82604,-273.74149 a 18.384775,18.384775 0 1 1 -36.76955,0 18.384775,18.384775 0 1 1 36.76955,0 z"
           transform="matrix(0.54243226,0,0,0.54243226,-197.60877,217.33797)"
           id="path3798-2-1-6-7-0-1-5-0-9"
           style="fill:#1abc9c;fill-opacity:1;stroke:#1abc9c;stroke-width:15;stroke-linecap:round;stroke-linejoin:round;stroke-miterlimit:4;stroke-opacity:1;stroke-dasharray:none;stroke-dashoffset:0;display:inline" />
      </g>
      <rect
         width="255"
         height="679"
         rx="0"
         ry="0"
         x="-1370.8158"
         y="-374.12027"
         id="rect3998"
         style="fill:#1abc9c;fill-opacity:1;stroke:#1abc9c;stroke-width:15;stroke-linecap:round;stroke-linejoin:miter;stroke-miterlimit:4;stroke-opacity:1;stroke-dasharray:none;stroke-dashoffset:0" />
      <rect
         width="150.23108"
         height="9.7530518"
         x="-1300.1925"
         y="-285.40872"
         id="rect4000"
         style="fill:#16a085;fill-opacity:1;stroke:#1a8b9c;stroke-width:0;stroke-linecap:round;stroke-linejoin:miter;stroke-miterlimit:4;stroke-opacity:1;stroke-dasharray:none;stroke-dashoffset:0" />
      <rect
         width="149.73108"
         height="9.7530518"
         x="-1299.9905"
         y="-239.16406"
         id="rect4000-1"
         style="fill:#16a085;fill-opacity:1;stroke:#1a8b9c;stroke-width:0;stroke-linecap:round;stroke-linejoin:miter;stroke-miterlimit:4;stroke-opacity:1;stroke-dasharray:none;stroke-dashoffset:0;display:inline" />
      <rect
         width="149.73108"
         height="9.7530518"
         x="-1299.928"
         y="-193.7652"
         id="rect4000-1-9"
         style="fill:#16a085;fill-opacity:1;stroke:#1a8b9c;stroke-width:0;stroke-linecap:round;stroke-linejoin:miter;stroke-miterlimit:4;stroke-opacity:1;stroke-dasharray:none;stroke-dashoffset:0;display:inline" />
      <rect
         width="149.73108"
         height="9.7530518"
         x="-1299.7209"
         y="-147.55324"
         id="rect4000-1-9-0"
         style="fill:#16a085;fill-opacity:1;stroke:#1a8b9c;stroke-width:0;stroke-linecap:round;stroke-linejoin:miter;stroke-miterlimit:4;stroke-opacity:1;stroke-dasharray:none;stroke-dashoffset:0;display:inline" />
      <rect
         width="149.73108"
         height="9.7530518"
         x="-1299.8655"
         y="-102.16407"
         id="rect4000-1-9-0-2"
         style="fill:#16a085;fill-opacity:1;stroke:#1a8b9c;stroke-width:0;stroke-linecap:round;stroke-linejoin:miter;stroke-miterlimit:4;stroke-opacity:1;stroke-dasharray:none;stroke-dashoffset:0;display:inline" />
      <rect
         width="149.73108"
         height="9.7530518"
         x="-1300.1155"
         y="-55.41407"
         id="rect4000-1-9-0-2-0"
         style="fill:#16a085;fill-opacity:1;stroke:#1a8b9c;stroke-width:0;stroke-linecap:round;stroke-linejoin:miter;stroke-miterlimit:4;stroke-opacity:1;stroke-dasharray:none;stroke-dashoffset:0;display:inline" />
      <rect
         width="149.73108"
         height="9.7530518"
         x="-1300.1155"
         y="-10.164071"
         id="rect4000-1-9-0-2-0-7"
         style="fill:#16a085;fill-opacity:1;stroke:#1a8b9c;stroke-width:0;stroke-linecap:round;stroke-linejoin:miter;stroke-miterlimit:4;stroke-opacity:1;stroke-dasharray:none;stroke-dashoffset:0;display:inline" />
      <rect
         width="19.622213"
         height="19.445436"
         x="-1238.8511"
         y="-290.35849"
         id="rect4110"
         style="fill:#27ae60;fill-opacity:1;stroke:#1a8b9c;stroke-width:0;stroke-linecap:round;stroke-linejoin:miter;stroke-miterlimit:4;stroke-opacity:1;stroke-dasharray:none;stroke-dashoffset:0" />
      <rect
         width="19.622213"
         height="19.445436"
         x="-1211.7159"
         y="-244.57332"
         id="rect4110-3"
         style="fill:#27ae60;fill-opacity:1;stroke:#1a8b9c;stroke-width:0;stroke-linecap:round;stroke-linejoin:miter;stroke-miterlimit:4;stroke-opacity:1;stroke-dasharray:none;stroke-dashoffset:0;display:inline" />
      <rect
         width="19.622213"
         height="19.445436"
         x="-1211.8104"
         y="-198.38283"
         id="rect4110-3-6"
         style="fill:#27ae60;fill-opacity:1;stroke:#1a8b9c;stroke-width:0;stroke-linecap:round;stroke-linejoin:miter;stroke-miterlimit:4;stroke-opacity:1;stroke-dasharray:none;stroke-dashoffset:0;display:inline" />
      <rect
         width="19.622213"
         height="19.445436"
         x="-1280.7104"
         y="-152.48154"
         id="rect4110-3-4"
         style="fill:#27ae60;fill-opacity:1;stroke:#1a8b9c;stroke-width:0;stroke-linecap:round;stroke-linejoin:miter;stroke-miterlimit:4;stroke-opacity:1;stroke-dasharray:none;stroke-dashoffset:0;display:inline" />
      <rect
         width="19.622213"
         height="19.445436"
         x="-1281.4783"
         y="-106.41605"
         id="rect4110-3-1"
         style="fill:#27ae60;fill-opacity:1;stroke:#1a8b9c;stroke-width:0;stroke-linecap:round;stroke-linejoin:miter;stroke-miterlimit:4;stroke-opacity:1;stroke-dasharray:none;stroke-dashoffset:0;display:inline" />
      <rect
         width="19.622213"
         height="19.445436"
         x="-1234.8093"
         y="-60.661217"
         id="rect4110-3-8"
         style="fill:#27ae60;fill-opacity:1;stroke:#1a8b9c;stroke-width:0;stroke-linecap:round;stroke-linejoin:miter;stroke-miterlimit:4;stroke-opacity:1;stroke-dasharray:none;stroke-dashoffset:0;display:inline" />
      <rect
         width="19.622213"
         height="19.445436"
         x="-1242.7124"
         y="-14.57428"
         id="rect4110-3-7"
         style="fill:#27ae60;fill-opacity:1;stroke:#1a8b9c;stroke-width:0;stroke-linecap:round;stroke-linejoin:miter;stroke-miterlimit:4;stroke-opacity:1;stroke-dasharray:none;stroke-dashoffset:0;display:inline" />
      <rect
         width="33.941124"
         height="33.941124"
         x="-1351.1952"
         y="-295.04047"
         id="rect4176"
         style="fill:#16a085;fill-opacity:1;stroke:#1a8b9c;stroke-width:0;stroke-linecap:round;stroke-linejoin:miter;stroke-miterlimit:4;stroke-opacity:1;stroke-dasharray:none;stroke-dashoffset:0" />
      <rect
         width="33.941124"
         height="33.941124"
         x="-1351.4882"
         y="-250.24274"
         id="rect4176-2"
         style="fill:#16a085;fill-opacity:1;stroke:#1a8b9c;stroke-width:0;stroke-linecap:round;stroke-linejoin:miter;stroke-miterlimit:4;stroke-opacity:1;stroke-dasharray:none;stroke-dashoffset:0;display:inline" />
      <rect
         width="33.941124"
         height="33.941124"
         x="-1350.9274"
         y="-204.81633"
         id="rect4176-0"
         style="fill:#16a085;fill-opacity:1;stroke:#1a8b9c;stroke-width:0;stroke-linecap:round;stroke-linejoin:miter;stroke-miterlimit:4;stroke-opacity:1;stroke-dasharray:none;stroke-dashoffset:0;display:inline" />
      <rect
         width="33.941124"
         height="33.941124"
         x="-1351.0917"
         y="-160.11174"
         id="rect4176-3"
         style="fill:#16a085;fill-opacity:1;stroke:#1a8b9c;stroke-width:0;stroke-linecap:round;stroke-linejoin:miter;stroke-miterlimit:4;stroke-opacity:1;stroke-dasharray:none;stroke-dashoffset:0;display:inline" />
      <rect
         width="33.941124"
         height="33.941124"
         x="-1351.0487"
         y="-114.77849"
         id="rect4176-6"
         style="fill:#16a085;fill-opacity:1;stroke:#1a8b9c;stroke-width:0;stroke-linecap:round;stroke-linejoin:miter;stroke-miterlimit:4;stroke-opacity:1;stroke-dasharray:none;stroke-dashoffset:0;display:inline" />
      <rect
         width="33.941124"
         height="33.941124"
         x="-1351.2684"
         y="-70.150177"
         id="rect4176-34"
         style="fill:#16a085;fill-opacity:1;stroke:#1a8b9c;stroke-width:0;stroke-linecap:round;stroke-linejoin:miter;stroke-miterlimit:4;stroke-opacity:1;stroke-dasharray:none;stroke-dashoffset:0;display:inline" />
      <rect
         width="33.941124"
         height="33.941124"
         x="-1351.0059"
         y="-25.18824"
         id="rect4176-4"
         style="fill:#16a085;fill-opacity:1;stroke:#1a8b9c;stroke-width:0;stroke-linecap:round;stroke-linejoin:miter;stroke-miterlimit:4;stroke-opacity:1;stroke-dasharray:none;stroke-dashoffset:0;display:inline" />
      <rect
         width="33.941124"
         height="33.941124"
         x="-1351.1398"
         y="35.148067"
         id="rect4176-45"
         style="fill:#16a085;fill-opacity:1;stroke:#1a8b9c;stroke-width:0;stroke-linecap:round;stroke-linejoin:miter;stroke-miterlimit:4;stroke-opacity:1;stroke-dasharray:none;stroke-dashoffset:0;display:inline" />
      <rect
         width="33.941124"
         height="33.941124"
         x="-1351.2382"
         y="79.433235"
         id="rect4176-07"
         style="fill:#16a085;fill-opacity:1;stroke:#1a8b9c;stroke-width:0;stroke-linecap:round;stroke-linejoin:miter;stroke-miterlimit:4;stroke-opacity:1;stroke-dasharray:none;stroke-dashoffset:0;display:inline" />
      <rect
         width="24"
         height="23.874996"
         x="-1295.3468"
         y="40.737579"
         id="rect4245"
         style="fill:none;stroke:#16a085;stroke-width:3.9000001;stroke-linecap:round;stroke-linejoin:miter;stroke-miterlimit:4;stroke-opacity:1;stroke-dasharray:none;stroke-dashoffset:0" />
      <rect
         width="24"
         height="23.874996"
         x="-1295.3988"
         y="84.491417"
         id="rect4245-8"
         style="fill:none;stroke:#16a085;stroke-width:3.9000001;stroke-linecap:round;stroke-linejoin:miter;stroke-miterlimit:4;stroke-opacity:1;stroke-dasharray:none;stroke-dashoffset:0;display:inline" />
      <rect
         width="193.62866"
         height="48.907482"
         x="-1338.6287"
         y="153.31049"
         id="rect4245-8-8"
         style="opacity:0.58673473;fill:none;stroke:#16a085;stroke-width:4;stroke-linecap:round;stroke-linejoin:miter;stroke-miterlimit:4;stroke-opacity:1;stroke-dasharray:none;stroke-dashoffset:0;display:inline" />
      <g
         id="text4299"
         style="font-size:20px;font-style:normal;font-weight:bold;line-height:125%;letter-spacing:0px;word-spacing:0px;fill:#16a085;fill-opacity:1;stroke:none;font-family:Sans;-inkscape-font-specification:Sans Bold">
        <path
           d="m -1299.1874,170.51105 6.2403,0 c 1.8554,10e-6 3.2779,0.41342 4.2675,1.24023 0.9961,0.82033 1.4942,1.9922 1.4942,3.51563 0,1.52995 -0.4981,2.70834 -1.4942,3.53515 -0.9896,0.82032 -2.4121,1.23048 -4.2675,1.23047 l -2.4805,0 0,5.0586 -3.7598,0 0,-14.58008 m 3.7598,2.72461 0,4.07226 2.0801,0 c 0.7291,1e-5 1.2923,-0.17577 1.6894,-0.52734 0.3971,-0.35807 0.5957,-0.86262 0.5957,-1.51367 0,-0.65103 -0.1986,-1.15234 -0.5957,-1.50391 -0.3971,-0.35155 -0.9603,-0.52733 -1.6894,-0.52734 l -2.0801,0"
           id="path4304" />
        <path
           d="m -1279.4901,176.38995 c -0.7748,1e-5 -1.3672,0.27996 -1.7774,0.83985 -0.4036,0.55339 -0.6054,1.35417 -0.6054,2.40234 0,1.04818 0.2018,1.85222 0.6054,2.41211 0.4102,0.55339 1.0026,0.83008 1.7774,0.83008 0.7617,0 1.3444,-0.27669 1.748,-0.83008 0.4037,-0.55989 0.6055,-1.36393 0.6055,-2.41211 0,-1.04817 -0.2018,-1.84895 -0.6055,-2.40234 -0.4036,-0.55989 -0.9863,-0.83984 -1.748,-0.83985 m 0,-2.5 c 1.8815,1e-5 3.3496,0.50783 4.4043,1.52344 1.0612,1.01563 1.5918,2.42188 1.5918,4.21875 0,1.79688 -0.5306,3.20313 -1.5918,4.21875 -1.0547,1.01563 -2.5228,1.52344 -4.4043,1.52344 -1.888,0 -3.3659,-0.50781 -4.4336,-1.52344 -1.0612,-1.01562 -1.5918,-2.42187 -1.5918,-4.21875 0,-1.79687 0.5306,-3.20312 1.5918,-4.21875 1.0677,-1.01561 2.5456,-1.52343 4.4336,-1.52344"
           id="path4306" />
        <path
           d="m -1269.8124,178.27472 1.6016,0 c 0.957,1e-5 1.6081,-0.10416 1.9531,-0.3125 0.3516,-0.20833 0.5273,-0.45572 0.5274,-0.74219 -10e-5,-0.67056 -0.7683,-1.00585 -2.3047,-1.00586 -1.2826,1e-5 -2.321,0.22462 -3.1153,0.67383 l 0,-2.5293 c 1.1849,-0.31249 2.4772,-0.46874 3.877,-0.46875 1.6406,1e-5 2.8385,0.23439 3.5937,0.70313 0.7552,0.46225 1.1328,1.1849 1.1328,2.16797 0,1.28907 -0.7129,2.09961 -2.1386,2.43164 1.608,0.39714 2.4121,1.32813 2.4121,2.79297 0,1.1263 -0.4427,1.97265 -1.3281,2.53906 -0.8855,0.56641 -2.2754,0.84961 -4.17,0.84961 -1.4127,0 -2.705,-0.18229 -3.8769,-0.54688 l 0,-2.69531 c 1.4583,0.61198 2.6204,0.91797 3.4863,0.91797 0.9505,0 1.6374,-0.12695 2.0606,-0.38086 0.4296,-0.26041 0.6445,-0.55338 0.6445,-0.87891 0,-0.90494 -0.9375,-1.35741 -2.8125,-1.35742 l -1.543,0 0,-2.1582"
           id="path4308" />
        <path
           d="m -1248.8456,174.15363 0,10.9375 -3.4961,0 0,-8.4375 -3.4668,0 0,8.4375 -3.4961,0 0,-10.9375 10.459,0"
           id="path4310" />
        <path
           d="m -1240.2714,176.38995 c -0.7747,1e-5 -1.3672,0.27996 -1.7773,0.83985 -0.4037,0.55339 -0.6055,1.35417 -0.6055,2.40234 0,1.04818 0.2018,1.85222 0.6055,2.41211 0.4101,0.55339 1.0026,0.83008 1.7773,0.83008 0.7617,0 1.3444,-0.27669 1.7481,-0.83008 0.4036,-0.55989 0.6054,-1.36393 0.6055,-2.41211 -10e-5,-1.04817 -0.2019,-1.84895 -0.6055,-2.40234 -0.4037,-0.55989 -0.9864,-0.83984 -1.7481,-0.83985 m 0,-2.5 c 1.8815,1e-5 3.3496,0.50783 4.4043,1.52344 1.0612,1.01563 1.5918,2.42188 1.5918,4.21875 0,1.79688 -0.5306,3.20313 -1.5918,4.21875 -1.0547,1.01563 -2.5228,1.52344 -4.4043,1.52344 -1.888,0 -3.3659,-0.50781 -4.4336,-1.52344 -1.0612,-1.01562 -1.5918,-2.42187 -1.5918,-4.21875 0,-1.79687 0.5306,-3.20312 1.5918,-4.21875 1.0677,-1.01561 2.5456,-1.52343 4.4336,-1.52344"
           id="path4312" />
        <path
           d="m -1225.4374,185.09113 0,-4.22852 -3.5937,0 c -0.9766,0 -1.7351,-0.28645 -2.2754,-0.85938 -0.5404,-0.57942 -0.8106,-1.43554 -0.8106,-2.56835 l 0,-3.28125 3.4961,0 0,1.94335 c 0,1.15887 0.094,1.88478 0.2832,2.17774 0.1888,0.28646 0.5306,0.42969 1.0254,0.42969 l 1.875,0 0,-4.55078 3.4961,0 0,10.9375 -3.4961,0"
           id="path4314" />
        <path
           d="m -1213.0741,180.16925 c -0.7292,1e-5 -1.2793,0.1237 -1.6504,0.37109 -0.3646,0.2474 -0.5469,0.61199 -0.5469,1.09375 0,0.44272 0.1465,0.79102 0.4395,1.04493 0.2995,0.24739 0.7129,0.37109 1.2402,0.37109 0.6576,0 1.211,-0.23437 1.6602,-0.70313 0.4492,-0.47525 0.6738,-1.0677 0.6738,-1.77734 l 0,-0.40039 -1.8164,0 m 5.3418,-1.31836 0,6.24024 -3.5254,0 0,-1.6211 c -0.4687,0.66407 -0.9961,1.14909 -1.582,1.45508 -0.586,0.29948 -1.2989,0.44922 -2.1387,0.44922 -1.1328,0 -2.054,-0.32878 -2.7637,-0.98633 -0.7031,-0.66406 -1.0547,-1.52343 -1.0547,-2.57812 0,-1.28255 0.4395,-2.22331 1.3184,-2.82227 0.8854,-0.59895 2.2721,-0.89843 4.1602,-0.89844 l 2.0605,0 0,-0.27344 c 0,-0.55337 -0.2181,-0.95702 -0.6543,-1.21093 -0.4362,-0.26041 -1.1165,-0.39062 -2.041,-0.39063 -0.7487,1e-5 -1.4453,0.0749 -2.0898,0.22461 -0.6446,0.14975 -1.2435,0.37436 -1.7969,0.67383 l 0,-2.66602 c 0.7487,-0.18228 1.5006,-0.319 2.2558,-0.41015 0.7552,-0.0976 1.5104,-0.14648 2.2657,-0.14649 1.9726,1e-5 3.3951,0.39064 4.2675,1.17188 0.8789,0.77475 1.3184,2.03777 1.3184,3.78906"
           id="path4316" />
        <path
           d="m -1206.0624,174.15363 11.4258,0 0,2.1582 -3.9648,0 0,8.7793 -3.4864,0 0,-8.7793 -3.9746,0 0,-2.1582"
           id="path4318" />
        <path
           d="m -1182.205,174.15363 0,10.9375 -3.496,0 0,-5.82032 -3.5254,5.82032 -3.6329,0 0,-10.9375 3.4961,0 0,5.82031 3.5254,-5.82031 3.6328,0"
           id="path4320" />
      </g>
      <rect
         width="71.639137"
         height="101.13914"
         rx="6.319581"
         ry="11.61036"
         x="-355.69458"
         y="-252.73212"
         id="rect4322"
         style="fill:none;stroke:#1abc9c;stroke-width:3.51099992;stroke-linecap:round;stroke-linejoin:miter;stroke-miterlimit:4;stroke-opacity:1;stroke-dasharray:none;stroke-dashoffset:0" />
      <rect
         width="71.639137"
         height="101.13914"
         rx="6.319581"
         ry="11.61036"
         x="-355.31955"
         y="-73.857117"
         id="rect4322-6"
         style="fill:none;stroke:#1abc9c;stroke-width:3.51099992;stroke-linecap:round;stroke-linejoin:miter;stroke-miterlimit:4;stroke-opacity:1;stroke-dasharray:none;stroke-dashoffset:0;display:inline;filter:url(#filter4295)" />
      <rect
         width="71.639137"
         height="101.13914"
         rx="6.319581"
         ry="11.61036"
         x="-355.31955"
         y="107.64288"
         id="rect4322-0"
         style="fill:none;stroke:#1abc9c;stroke-width:3.51099992;stroke-linecap:round;stroke-linejoin:miter;stroke-miterlimit:4;stroke-opacity:1;stroke-dasharray:none;stroke-dashoffset:0;display:inline;filter:url(#filter4295)" />
      <g
         transform="scale(0.86249997,1.1594203)"
         id="text4349"
         style="font-size:45.50190353px;font-style:normal;font-weight:bold;line-height:125%;letter-spacing:0px;word-spacing:0px;fill:#8c8c8c;fill-opacity:1;stroke:none;font-family:Sans;-inkscape-font-specification:Sans Bold">
        <path
           d="m -366.57026,-174.52792 c -2e-5,-4.14729 -0.39253,-7.06521 -1.17754,-8.75378 -0.77023,-1.70333 -2.07367,-2.55501 -3.91032,-2.55504 -1.83668,3e-5 -3.14752,0.85171 -3.93254,2.55504 -0.78504,1.68857 -1.17755,4.60649 -1.17754,8.75378 -1e-5,4.19176 0.3925,7.14671 1.17754,8.86488 0.78502,1.71817 2.09586,2.57726 3.93254,2.57725 1.82184,1e-5 3.12527,-0.85908 3.91032,-2.57725 0.78501,-1.71817 1.17752,-4.67312 1.17754,-8.86488 m 8.55382,0.0667 c -3e-5,5.49519 -1.18497,9.73877 -3.55483,12.73075 -2.36992,2.97718 -5.7322,4.46577 -10.08685,4.46577 -4.3695,0 -7.73918,-1.48859 -10.10907,-4.46577 -2.36989,-2.99198 -3.55483,-7.23556 -3.55483,-12.73075 0,-5.50998 1.18494,-9.75356 3.55483,-12.73076 2.36989,-2.99196 5.73957,-4.48795 10.10907,-4.48798 4.35465,3e-5 7.71693,1.49602 10.08685,4.48798 2.36986,2.9772 3.5548,7.22078 3.55483,12.73076"
           id="path4354" />
      </g>
      <g
         transform="matrix(0.86249997,0,0,1.1594203,0.95244296,179.56819)"
         id="text4349-9"
         style="font-size:45.50190353px;font-style:normal;font-weight:bold;line-height:125%;letter-spacing:0px;word-spacing:0px;fill:#8c8c8c;fill-opacity:1;stroke:none;display:inline;filter:url(#filter4295);font-family:Sans;-inkscape-font-specification:Sans Bold">
        <path
           d="m -366.57026,-174.52792 c -2e-5,-4.14729 -0.39253,-7.06521 -1.17754,-8.75378 -0.77023,-1.70333 -2.07367,-2.55501 -3.91032,-2.55504 -1.83668,3e-5 -3.14752,0.85171 -3.93254,2.55504 -0.78504,1.68857 -1.17755,4.60649 -1.17754,8.75378 -1e-5,4.19176 0.3925,7.14671 1.17754,8.86488 0.78502,1.71817 2.09586,2.57726 3.93254,2.57725 1.82184,1e-5 3.12527,-0.85908 3.91032,-2.57725 0.78501,-1.71817 1.17752,-4.67312 1.17754,-8.86488 m 8.55382,0.0667 c -3e-5,5.49519 -1.18497,9.73877 -3.55483,12.73075 -2.36992,2.97718 -5.7322,4.46577 -10.08685,4.46577 -4.3695,0 -7.73918,-1.48859 -10.10907,-4.46577 -2.36989,-2.99198 -3.55483,-7.23556 -3.55483,-12.73075 0,-5.50998 1.18494,-9.75356 3.55483,-12.73076 2.36989,-2.99196 5.73957,-4.48795 10.10907,-4.48798 4.35465,3e-5 7.71693,1.49602 10.08685,4.48798 2.36986,2.9772 3.5548,7.22078 3.55483,12.73076"
           id="path4354-2" />
      </g>
      <g
         transform="matrix(0.86249997,0,0,1.1594203,0.24533632,359.88042)"
         id="text4349-0"
         style="font-size:45.50190353px;font-style:normal;font-weight:bold;line-height:125%;letter-spacing:0px;word-spacing:0px;fill:#8c8c8c;fill-opacity:1;stroke:none;display:inline;filter:url(#filter4295);font-family:Sans;-inkscape-font-specification:Sans Bold">
        <path
           d="m -366.57026,-174.52792 c -2e-5,-4.14729 -0.39253,-7.06521 -1.17754,-8.75378 -0.77023,-1.70333 -2.07367,-2.55501 -3.91032,-2.55504 -1.83668,3e-5 -3.14752,0.85171 -3.93254,2.55504 -0.78504,1.68857 -1.17755,4.60649 -1.17754,8.75378 -1e-5,4.19176 0.3925,7.14671 1.17754,8.86488 0.78502,1.71817 2.09586,2.57726 3.93254,2.57725 1.82184,1e-5 3.12527,-0.85908 3.91032,-2.57725 0.78501,-1.71817 1.17752,-4.67312 1.17754,-8.86488 m 8.55382,0.0667 c -3e-5,5.49519 -1.18497,9.73877 -3.55483,12.73075 -2.36992,2.97718 -5.7322,4.46577 -10.08685,4.46577 -4.3695,0 -7.73918,-1.48859 -10.10907,-4.46577 -2.36989,-2.99198 -3.55483,-7.23556 -3.55483,-12.73075 0,-5.50998 1.18494,-9.75356 3.55483,-12.73076 2.36989,-2.99196 5.73957,-4.48795 10.10907,-4.48798 4.35465,3e-5 7.71693,1.49602 10.08685,4.48798 2.36986,2.9772 3.5548,7.22078 3.55483,12.73076"
           id="path4354-8" />
      </g>
    </g>
  </g>
</svg>
